<svg id="Capa_1" enable-background="new 0 0 512 512" height="512" viewBox="0 0 512 512" width="512" xmlns="http://www.w3.org/2000/svg"><g><g><path d="m30.836 107.433h450.327v63.491l-19.461 17.647c-21.135 19.164-19.221 52.936 3.943 69.59l15.518 11.156v193.991c0 7.052-6.342 12.425-13.296 11.255-24.91-4.189-29.281-19.753-61.757-19.753-16.124 0-24.676 3.501-32.898 7.877-17.054-53.553-104.165-78.403-144.316-2.781-13.806 6.157-23.019 15.685-47.944 15.685-22.277 0-31.331-7.322-42.859-13.273-7.893-4.075-107.258-110.815-107.258-110.815v-244.07z" fill="#ff7591"/><path d="m450.712 239.662c-7.325-16.897-3.881-37.607 10.99-51.092l19.461-17.646v-63.491h-450.327v132.229z" fill="#fe5b70"/><g><path d="m66.274 343.351c-12.709 0-24.731 2.932-35.437 8.145v111.811c0 7.052 6.341 12.424 13.296 11.255 24.913-4.189 29.284-19.753 61.763-19.753 15.159 0 24.193 3.391 32.052 7.433 5.977-11.298 9.377-24.17 9.377-37.842-.001-44.762-36.289-81.049-81.051-81.049z" fill="#fff2cf"/><circle cx="174.95" cy="220.12" fill="#fff2cf" r="81.05"/><path d="m253.613 239.662c1.55-6.26 2.387-12.802 2.387-19.542 0-44.763-36.288-81.05-81.05-81.05s-81.05 36.287-81.05 81.05c0 6.74.837 13.282 2.387 19.542z" fill="#ffe1bd"/><path d="m416.767 139.07c-44.763 0-81.05 36.287-81.05 81.05s36.288 81.05 81.05 81.05c26.257 0 49.585-12.496 64.396-31.854v-98.393c-14.811-19.358-38.139-31.853-64.396-31.853z" fill="#fff2cf"/><g><path d="m481.164 239.662v-68.738c-14.811-19.358-38.139-31.854-64.396-31.854-44.763 0-81.05 36.287-81.05 81.05 0 6.74.837 13.282 2.387 19.542z" fill="#ffe1bd"/></g><path d="m301.768 343.351c-44.763 0-81.05 36.288-81.05 81.05 0 12.736 2.945 24.782 8.18 35.505 6.815-2.929 15.007-5.096 27.111-5.096 37.526 0 37.526 20.781 75.053 20.781 21.817 0 30.954-7.022 42.152-12.903 6.124-11.403 9.604-24.437 9.604-38.286 0-44.764-36.287-81.051-81.05-81.051z" fill="#fff2cf"/></g><path d="m479.214 185.588h-25.207l-87.674-45.297-87.674 45.297h-245.873c-13.965 0-25.286-11.321-25.286-25.286v-98.276c0-13.965 11.321-25.286 25.286-25.286h25.193l86.771 38.175 88.605-38.175h245.859c13.965 0 25.286 11.321 25.286 25.286v98.277c0 13.964-11.321 25.285-25.286 25.285z" fill="#ff7591"/><path d="m133.61 70.014-75.631-33.274h-25.193c-13.965 0-25.286 11.321-25.286 25.286v7.989h126.11z" fill="#fe5b70"/><path d="m504.5 70.014v-7.989c0-13.965-11.321-25.286-25.286-25.286h-245.859l-77.229 33.274h348.374z" fill="#fe5b70"/><g fill="#fff2cf"><path d="m145.667 124.428c48.429 0 87.688-39.259 87.688-87.688h-175.376c0 48.429 39.259 87.688 87.688 87.688z"/><path d="m366.333 97.346c-48.429 0-87.688 39.259-87.688 87.688 0 .186.013.368.014.554h175.348c.001-.185.014-.368.014-.554 0-48.428-39.259-87.688-87.688-87.688z"/></g><g><path d="m226.81 70.014c4.213-10.262 6.545-21.494 6.545-33.274h-175.376c0 11.78 2.332 23.012 6.545 33.274z" fill="#ffe1bd"/></g></g><g><path d="m479.215 29.24h-446.43c-18.078 0-32.785 14.708-32.785 32.786v98.276c0 14.794 9.851 27.325 23.336 31.392v63.586c0 4.142 3.357 7.5 7.5 7.5s7.5-3.358 7.5-7.5v-62.192h52.288c-2.74 8.526-4.225 17.608-4.225 27.032 0 48.827 39.724 88.551 88.551 88.551 48.826 0 88.55-39.724 88.55-88.551 0-9.424-1.485-18.506-4.225-27.032h73.167c-2.74 8.526-4.225 17.608-4.225 27.032 0 48.827 39.724 88.551 88.551 88.551 21.187 0 41.12-7.379 56.896-20.681v175.318c-.328 2.692-1.845 3.979-4.552 3.859-9.252-1.556-15.367-4.942-21.841-8.528-18.652-10.328-39.541-14.294-60.58-9.185 2.386-8.107 3.627-16.56 3.627-25.053 0-48.827-39.724-88.55-88.551-88.55-48.826 0-88.55 39.724-88.55 88.55 0 11.053 1.99 21.75 5.924 31.897-23.821 12.621-47.227 16.089-71.377 2.732 4.63-10.906 7.06-22.738 7.06-34.629 0-48.827-39.724-88.55-88.551-88.55-9.626 0-18.98 1.516-27.938 4.504v-55.223c0-4.142-3.357-7.5-7.5-7.5s-7.5 3.358-7.5 7.5v178.175c0 11.509 10.692 20.562 22.039 18.651 11.786-1.981 19.669-6.346 26.623-10.197 22.78-12.613 45.697-12.235 67.793 0 26.482 14.664 55.841 14.665 82.323 0 22.077-12.224 45.155-12.534 67.787 0 29.152 16.142 57.987 12.524 86.818-2.445 20.421-10.729 43.591-8.461 63.285 2.445 6.954 3.851 14.836 8.215 26.62 10.197 11.256 1.896 22.04-7.205 22.04-18.651v-271.613c13.486-4.067 23.337-16.598 23.337-31.392v-98.276c0-18.078-14.707-32.786-32.785-32.786zm-344.893 423.074c-22.883-9.202-48.517-5.344-69.59 6.325-6.476 3.585-12.591 6.972-21.845 8.528-2.353.394-4.552-1.475-4.552-3.859v-106.963c8.85-3.648 18.226-5.494 27.938-5.494 40.556 0 73.551 32.995 73.551 73.55 0 9.571-1.887 19.094-5.502 27.913zm98.641-1.869c-3.151-8.291-4.745-17.023-4.745-26.044 0-40.556 32.994-73.55 73.55-73.55s73.551 32.995 73.551 73.55c0 11.37-2.655 22.652-7.695 32.773-23.411 12.731-46.961 14.475-70.454 1.465-9.59-5.31-20.459-11.329-41.16-11.329-8.549 0-16.036 1.008-23.047 3.135zm264.037-290.143c0 9.807-7.979 17.786-17.785 17.786h-17.948c-3.57-49.256-44.783-88.242-94.934-88.242s-91.364 38.985-94.934 88.242h-238.614c-9.807 0-17.785-7.979-17.785-17.786v-98.276c0-9.807 7.979-17.786 17.785-17.786h17.988c3.837 48.995 44.931 87.688 94.894 87.688s91.057-38.694 94.894-87.688h238.654c9.807 0 17.785 7.979 17.785 17.786zm-80.232 133.368c-40.556 0-73.551-32.995-73.551-73.551 0-9.543 1.847-18.657 5.169-27.032h125.278v73.622c-14.048 17.167-34.645 26.961-56.896 26.961zm29.454-115.582h-159.78c3.532-40.977 38.015-73.242 79.891-73.242s76.358 32.267 79.889 73.242zm-197.722 42.032c0 40.556-32.994 73.551-73.55 73.551s-73.551-32.995-73.551-73.551c0-9.543 1.847-18.657 5.169-27.032h136.763c3.322 8.374 5.169 17.489 5.169 27.032zm-22.992-175.88c-3.794 40.713-38.153 72.688-79.841 72.688s-76.047-31.975-79.841-72.688z"/></g></g></svg>